<?xml version="1.0" encoding="UTF-8"?>
<svg xmlns="http://www.w3.org/2000/svg" xmlns:xlink="http://www.w3.org/1999/xlink" width="150px" height="150px" viewBox="0 0 150 150" version="1.1">
	<g id="surface1">
		<path style=" stroke:none;fill-rule:nonzero;fill:rgb(0%,82.352941%,72.156863%);fill-opacity:1;" d="M 41.328125 40.835938 L 31.632812 31.140625 L 31.675781 101.21875 L 31.789062 104.496094 C 31.839844 106.039062 32.125 107.777344 32.601562 109.578125 L 109.421875 136.667969 L 128.621094 128.160156 L 128.628906 128.136719 L 41.328125 40.835938 " />
		<path style=" stroke:none;fill-rule:nonzero;fill:rgb(33.333333%,86.666667%,79.215686%);fill-opacity:1;" d="M 32.601562 109.578125 L 32.605469 109.582031 C 32.601562 109.550781 32.585938 109.515625 32.585938 109.484375 C 32.585938 109.515625 32.589844 109.546875 32.601562 109.578125 Z M 128.621094 128.160156 L 109.421875 136.667969 L 32.605469 109.582031 C 34.074219 115.210938 37.320312 121.539062 40.816406 125 L 65.886719 149.925781 L 121.625 150 L 128.628906 128.136719 Z M 128.621094 128.160156 " />
		<path style=" stroke:none;fill-rule:nonzero;fill:rgb(0%,50.588235%,77.647059%);fill-opacity:1;" d="M 1.777344 76.238281 C -0.703125 78.890625 0.527344 84.355469 4.523438 88.382812 L 21.761719 105.761719 L 32.601562 109.578125 C 32.125 107.777344 31.839844 106.039062 31.789062 104.496094 L 31.675781 101.21875 L 31.632812 31.140625 Z M 1.777344 76.238281 " />
		<path style=" stroke:none;fill-rule:nonzero;fill:rgb(0%,47.45098%,70.196078%);fill-opacity:1;" d="M 110.050781 32.042969 C 108.25 31.582031 106.519531 31.296875 104.953125 31.25 L 101.492188 31.128906 L 31.632812 31.136719 L 128.640625 128.136719 L 128.648438 128.136719 L 137.167969 108.914062 L 110.050781 32.042969 " />
		<path style=" stroke:none;fill-rule:nonzero;fill:rgb(0%,64.313725%,89.411765%);fill-opacity:1;" d="M 109.960938 32.023438 C 110 32.03125 110.03125 32.042969 110.054688 32.046875 L 110.050781 32.042969 C 110.03125 32.03125 110 32.03125 109.960938 32.023438 Z M 125.460938 40.273438 C 121.9375 36.722656 115.695312 33.496094 110.054688 32.046875 L 137.167969 108.914062 L 128.648438 128.136719 L 128.640625 128.136719 L 149.457031 121.484375 L 149.503906 64.40625 Z M 125.460938 40.273438 " />
		<path style=" stroke:none;fill-rule:nonzero;fill:rgb(0%,82.352941%,72.156863%);fill-opacity:1;" d="M 106.253906 21.269531 L 88.878906 4.019531 C 84.859375 0.0390625 79.390625 -1.199219 76.75 1.277344 L 31.632812 31.136719 L 101.492188 31.128906 L 104.953125 31.25 C 106.519531 31.296875 108.25 31.582031 110.050781 32.042969 Z M 106.253906 21.269531 " />
	</g>
</svg>
