<?xml version="1.0" encoding="UTF-8"?>
<svg xmlns="http://www.w3.org/2000/svg" xmlns:xlink="http://www.w3.org/1999/xlink" width="154px" height="154px" viewBox="0 0 154 154" version="1.1">
<defs>
<linearGradient id="linear0" gradientUnits="userSpaceOnUse" x1="0" y1="0.5" x2="0.5298" y2="1.348122" gradientTransform="matrix(54.027344,0,0,44.996094,99.960938,33.273438)">
<stop offset="0.540167" style="stop-color:rgb(93.72549%,96.862745%,98.823529%);stop-opacity:1;"/>
<stop offset="0.905667" style="stop-color:rgb(100%,100%,100%);stop-opacity:1;"/>
</linearGradient>
</defs>
<g id="surface1">
<path style=" stroke:none;fill-rule:nonzero;fill:rgb(78.431373%,85.490196%,91.764706%);fill-opacity:1;" d="M 133.605469 75.699219 C 135.21875 75.699219 134.945312 75.089844 135.503906 73.550781 L 140.253906 57.917969 L 103.683594 36.222656 "/>
<path style=" stroke:none;fill-rule:nonzero;fill:rgb(66.27451%,78.823529%,86.666667%);fill-opacity:1;" d="M 133.605469 75.699219 C 132.355469 75.699219 131.804688 75.128906 131.109375 74.453125 L 124.460938 67.988281 L 132.753906 62.988281 "/>
<path style=" stroke:none;fill-rule:nonzero;fill:url(#linear0);" d="M 132.757812 62.988281 L 112.660156 77.835938 C 110.367188 79.101562 108.710938 78.445312 108.140625 75.707031 L 99.960938 37.160156 C 99.121094 33.800781 101.238281 32.277344 103.433594 33.273438 L 151.46875 51.796875 C 154.746094 53.109375 154.726562 54.941406 152.066406 55.753906 L 139.738281 59.601562 L 111.203125 41.597656 C 109.855469 40.78125 108.617188 41.21875 109.632812 42.121094 "/>
<path style=" stroke:none;fill-rule:nonzero;fill:rgb(0%,64.705882%,91.372549%);fill-opacity:1;" d="M 92.296875 51.328125 L 76.527344 42.792969 C 76.273438 42.65625 76.042969 42.789062 75.984375 42.824219 L 63.519531 51.328125 C 63.457031 51.371094 63.417969 51.441406 63.410156 51.515625 C 63.40625 51.59375 63.4375 51.664062 63.496094 51.714844 L 69.921875 57.347656 C 69.96875 57.386719 70.027344 57.40625 70.085938 57.40625 C 70.117188 57.40625 70.152344 57.402344 70.183594 57.386719 L 78.328125 53.695312 L 92.222656 51.785156 C 92.328125 51.769531 92.40625 51.6875 92.425781 51.585938 C 92.441406 51.480469 92.390625 51.378906 92.296875 51.328125 Z M 92.296875 51.328125 "/>
<path style=" stroke:none;fill-rule:nonzero;fill:rgb(0%,80%,72.54902%);fill-opacity:1;" d="M 69.011719 64.109375 L 82.511719 65.578125 C 82.511719 65.578125 86.796875 58.601562 92.367188 54.378906 L 91.84375 51.234375 L 78.328125 53.695312 L 70.183594 57.386719 Z M 69.011719 64.109375 "/>
<path style=" stroke:none;fill-rule:nonzero;fill:rgb(0.392157%,54.509804%,81.960784%);fill-opacity:1;" d="M 50.433594 57.011719 L 63.554688 51.304688 L 70.183594 57.386719 L 69.011719 64.109375 L 55.941406 54.617188 Z M 50.433594 57.011719 "/>
<path style=" stroke:none;fill-rule:nonzero;fill:rgb(0%,64.705882%,91.372549%);fill-opacity:1;" d="M 55.933594 54.539062 L 3.65625 33.316406 C 2.566406 32.875 2.371094 32.984375 2.371094 32.984375 C 2.292969 33.15625 2.6875 33.714844 2.789062 33.855469 C 11.363281 45.449219 31.28125 65.992188 31.484375 66.199219 C 31.535156 66.25 31.597656 66.273438 31.660156 66.273438 C 31.695312 66.273438 31.730469 66.265625 31.765625 66.25 L 55.945312 54.988281 C 56.035156 54.945312 56.089844 54.855469 56.085938 54.757812 C 56.085938 54.660156 56.023438 54.574219 55.933594 54.539062 Z M 55.933594 54.539062 "/>
<path style=" stroke:none;fill-rule:nonzero;fill:rgb(0%,64.705882%,91.372549%);fill-opacity:1;" d="M 48.074219 82.4375 L 51.78125 83.699219 L 69.011719 64.109375 L 56.027344 54.605469 Z M 48.074219 82.4375 "/>
<path style=" stroke:none;fill-rule:nonzero;fill:rgb(30.588235%,87.058824%,79.607843%);fill-opacity:1;" d="M 79.730469 77.84375 C 79.914062 77.648438 80.085938 77.535156 80.1875 76.933594 C 80.695312 73.789062 82.511719 65.578125 82.511719 65.578125 L 69.011719 64.109375 L 51.78125 83.699219 L 58.699219 93.371094 Z M 79.730469 77.84375 "/>
<path style=" stroke:none;fill-rule:nonzero;fill:rgb(0.392157%,54.509804%,81.960784%);fill-opacity:1;" d="M 48.074219 82.4375 C 48.074219 82.4375 55.820312 104.085938 57.964844 107.816406 L 58.699219 93.371094 L 51.78125 83.699219 Z M 48.074219 82.4375 "/>
<path style=" stroke:none;fill-rule:nonzero;fill:rgb(0%,80%,72.54902%);fill-opacity:1;" d="M 58.332031 120.773438 L 58.316406 120.335938 L 57.835938 107.585938 L 48.074219 82.4375 C 48.074219 82.4375 48.066406 82.496094 48.050781 82.605469 C 47.828125 84.433594 45.226562 101.511719 47.511719 112.140625 C 47.558594 112.289062 47.691406 112.574219 47.902344 112.042969 C 48.554688 110.03125 50.359375 104.628906 51.085938 103.902344 C 51.085938 103.902344 51.429688 111.382812 52.148438 114.566406 C 52.167969 114.644531 52.328125 115.234375 52.796875 115.785156 C 53.867188 117.066406 56.542969 119.511719 57.972656 120.925781 C 58.078125 121.015625 58.296875 121.15625 58.332031 120.773438 Z M 58.332031 120.773438 "/>
<path style=" stroke:none;fill-rule:nonzero;fill:rgb(1.568627%,35.686275%,49.803922%);fill-opacity:1;" d="M 75.265625 53.207031 C 75.429688 51.4375 76.960938 50.128906 78.683594 50.289062 C 80.402344 50.449219 81.664062 52.019531 81.5 53.789062 C 81.332031 55.5625 79.800781 56.871094 78.082031 56.710938 C 76.363281 56.550781 75.097656 54.980469 75.265625 53.207031 Z M 75.265625 53.207031 "/>
<path style=" stroke:none;fill-rule:nonzero;fill:rgb(1.568627%,35.686275%,49.803922%);fill-opacity:1;" d="M 80.960938 52.96875 C 80.960938 52.96875 93.285156 50.765625 112.21875 48.972656 C 112.21875 48.972656 95.519531 52.875 91.683594 54.914062 L 80.386719 53.949219 Z M 80.960938 52.96875 "/>
<path style=" stroke:none;fill-rule:nonzero;fill:rgb(1.568627%,35.686275%,49.803922%);fill-opacity:1;" d="M 75.859375 53.910156 L 69.652344 57.011719 L 70.171875 57.464844 L 76.550781 54.519531 Z M 75.859375 53.910156 "/>
<path style=" stroke:none;fill-rule:nonzero;fill:rgb(0%,80%,72.54902%);fill-opacity:1;" d="M 76.78125 102.652344 C 76.730469 102.628906 76.683594 102.609375 76.632812 102.585938 C 76.628906 102.585938 76.625 102.585938 76.625 102.585938 L 76.625 102.582031 C 64 97.089844 60.355469 92.082031 60.355469 92.082031 L 58.546875 93.160156 L 57.863281 107.574219 C 57.863281 107.574219 60.523438 116.996094 61.660156 119.90625 C 61.667969 119.929688 61.828125 120.339844 62.195312 120.1875 C 62.25 120.152344 62.308594 120.117188 62.378906 120.078125 C 62.378906 120.078125 62.378906 120.078125 62.378906 120.074219 C 62.691406 119.886719 63.125 119.617188 63.628906 119.300781 C 63.648438 119.285156 66.632812 117.136719 69.75 114.070312 C 69.945312 113.820312 69.851562 113.609375 69.824219 113.558594 C 68.597656 111.445312 64.570312 104.535156 63.328125 102.675781 C 63.328125 102.675781 68.261719 107.898438 72.460938 110.683594 C 72.539062 110.726562 72.707031 110.792969 72.855469 110.675781 C 74.652344 108.4375 76.414062 105.304688 76.90625 102.953125 C 76.917969 102.796875 76.855469 102.703125 76.78125 102.652344 Z M 76.78125 102.652344 "/>
<path style=" stroke:none;fill-rule:nonzero;fill:rgb(0.392157%,54.509804%,81.960784%);fill-opacity:1;" d="M 50.03125 57.371094 C 50.03125 57.371094 34.257812 65.21875 29.207031 66.566406 L 40.550781 69.914062 Z M 50.03125 57.371094 "/>
<path style=" stroke:none;fill-rule:nonzero;fill:rgb(0%,64.705882%,91.372549%);fill-opacity:1;" d="M 48.074219 82.265625 L 31.75 65.941406 C 31.714844 65.910156 31.667969 65.898438 31.625 65.914062 C 31.617188 65.914062 31.5625 65.929688 31.484375 65.949219 L 31.382812 65.847656 L 31.027344 65.972656 L 29.484375 66.488281 C 24.6875 67.777344 12.671875 70.96875 2.15625 73.621094 C 2.140625 73.625 2.089844 73.648438 2.089844 73.648438 C 2.089844 73.648438 1.648438 73.804688 2.21875 73.96875 C 4.574219 74.511719 21.390625 78.308594 47.964844 82.472656 C 47.972656 82.476562 47.980469 82.476562 47.984375 82.476562 C 48.03125 82.476562 48.074219 82.449219 48.09375 82.40625 C 48.117188 82.359375 48.109375 82.304688 48.074219 82.265625 Z M 48.074219 82.265625 "/>
<path style=" stroke:none;fill-rule:nonzero;fill:rgb(0.392157%,54.509804%,81.960784%);fill-opacity:1;" d="M 56.027344 54.605469 L 33.894531 64.820312 L 31.132812 65.9375 L 42.605469 77.082031 L 48.074219 82.4375 Z M 56.027344 54.605469 "/>
</g>
</svg>
